<?xml version="1.0" standalone="no"?><!-- Generator: Gravit.io --><svg xmlns="http://www.w3.org/2000/svg" xmlns:xlink="http://www.w3.org/1999/xlink" style="isolation:isolate" viewBox="0 0 200 200" width="200" height="200"><g><circle vector-effect="non-scaling-stroke" cx="0" cy="0" r="1" transform="matrix(100,0,0,100,100,100)" fill="rgb(149,187,77)"/><path d=" M 167.969 62.5 L 165.625 62.5 L 165.625 48.438 C 165.625 35.313 136.562 25 100 25 C 63.437 25 34.375 35.313 34.375 48.438 L 34.375 62.5 L 32.031 62.5 C 28.149 62.5 25 65.646 25 69.531 L 25 92.969 C 25 96.851 28.149 100 32.031 100 L 34.375 100 L 34.375 146.875 C 34.375 152.052 38.573 156.25 43.75 156.25 L 43.75 165.625 C 43.75 170.802 47.948 175 53.125 175 L 62.5 175 C 67.677 175 71.875 170.802 71.875 165.625 L 71.875 156.25 L 128.125 156.25 L 128.125 165.625 C 128.125 170.802 132.323 175 137.5 175 L 146.875 175 C 152.052 175 156.25 170.802 156.25 165.625 L 156.25 156.25 L 158.125 156.25 C 162.812 156.25 165.625 152.5 165.625 148.75 L 165.625 100 L 167.969 100 C 171.851 100 175 96.851 175 92.969 L 175 69.531 C 175 65.646 171.851 62.5 167.969 62.5 Z  M 57.813 142.188 C 52.636 142.188 48.438 137.989 48.438 132.813 C 48.438 127.636 52.636 123.438 57.813 123.438 C 62.989 123.438 67.188 127.636 67.188 132.813 C 67.188 137.989 62.989 142.188 57.813 142.188 Z  M 62.5 109.375 C 57.323 109.375 53.125 105.177 53.125 100 L 53.125 62.5 C 53.125 57.323 57.323 53.125 62.5 53.125 L 137.5 53.125 C 142.677 53.125 146.875 57.323 146.875 62.5 L 146.875 100 C 146.875 105.177 142.677 109.375 137.5 109.375 L 62.5 109.375 Z  M 142.188 142.188 C 137.011 142.188 132.813 137.989 132.813 132.813 C 132.813 127.636 137.011 123.438 142.188 123.438 C 147.364 123.438 151.563 127.636 151.563 132.813 C 151.563 137.989 147.364 142.188 142.188 142.188 Z " fill="rgb(255,255,255)"/></g></svg>