<?xml version="1.0" standalone="no"?><!-- Generator: Gravit.io --><svg xmlns="http://www.w3.org/2000/svg" xmlns:xlink="http://www.w3.org/1999/xlink" style="isolation:isolate" viewBox="0 0 25 25" width="25" height="25"><g><circle vector-effect="non-scaling-stroke" cx="0" cy="0" r="1" transform="matrix(12.5,0,0,12.5,12.5,12.5)" fill="rgb(0,0,0)"/><path d=" M 20.703 6.641 L 20.703 16.016 C 20.703 17.913 18.446 19.531 15.942 19.531 L 18.248 21.352 C 18.466 21.524 18.343 21.875 18.066 21.875 L 6.934 21.875 C 6.656 21.875 6.535 21.524 6.752 21.352 L 9.058 19.531 C 6.561 19.531 4.297 17.918 4.297 16.016 L 4.297 6.641 C 4.297 4.699 6.641 3.125 8.984 3.125 L 16.016 3.125 C 18.396 3.125 20.703 4.699 20.703 6.641 Z  M 18.945 11.621 L 18.945 7.52 C 18.945 7.034 18.552 6.641 18.066 6.641 L 6.934 6.641 C 6.448 6.641 6.055 7.034 6.055 7.52 L 6.055 11.621 C 6.055 12.107 6.448 12.5 6.934 12.5 L 18.066 12.5 C 18.552 12.5 18.945 12.107 18.945 11.621 Z  M 12.5 13.965 C 11.367 13.965 10.449 14.883 10.449 16.016 C 10.449 17.148 11.367 18.066 12.5 18.066 C 13.633 18.066 14.551 17.148 14.551 16.016 C 14.551 14.883 13.633 13.965 12.5 13.965 Z " fill="rgb(255,255,255)"/></g></svg>