<?xml version="1.0" encoding="UTF-8" standalone="no"?>
<svg
   xmlns:dc="http://purl.org/dc/elements/1.1/"
   xmlns:cc="http://creativecommons.org/ns#"
   xmlns:rdf="http://www.w3.org/1999/02/22-rdf-syntax-ns#"
   xmlns:svg="http://www.w3.org/2000/svg"
   xmlns="http://www.w3.org/2000/svg"
   xmlns:sodipodi="http://sodipodi.sourceforge.net/DTD/sodipodi-0.dtd"
   xmlns:inkscape="http://www.inkscape.org/namespaces/inkscape"
   viewBox="0 121 68.905334 19.6"
   enable-background="new 0 121 150 19.6"
   version="1.1"
   id="svg4585"
   sodipodi:docname="map-christmas-train-short.svg"
   width="68.905334"
   height="19.6"
   inkscape:version="0.92.0 r15299">
  <metadata
     id="metadata4591">
    <rdf:RDF>
      <cc:Work
         rdf:about="">
        <dc:format>image/svg+xml</dc:format>
        <dc:type
           rdf:resource="http://purl.org/dc/dcmitype/StillImage" />
        <dc:title></dc:title>
      </cc:Work>
    </rdf:RDF>
  </metadata>
  <defs
     id="defs4589" />
  <sodipodi:namedview
     pagecolor="#ffffff"
     bordercolor="#666666"
     borderopacity="1"
     objecttolerance="10"
     gridtolerance="10"
     guidetolerance="10"
     inkscape:pageopacity="0"
     inkscape:pageshadow="2"
     inkscape:window-width="1920"
     inkscape:window-height="1017"
     id="namedview4587"
     showgrid="false"
     inkscape:pagecheckerboard="true"
     fit-margin-top="0"
     fit-margin-left="0"
     fit-margin-right="0"
     fit-margin-bottom="0"
     inkscape:zoom="8"
     inkscape:cx="21.35997"
     inkscape:cy="31.229483"
     inkscape:window-x="-8"
     inkscape:window-y="32"
     inkscape:window-maximized="1"
     inkscape:current-layer="g4583" />
  <g
     id="g4583"
     transform="translate(-81.1)">
    <path
       d="m 125,125.4 h 3.7 v 3.7 H 125 Z"
       id="path4485"
       inkscape:connector-curvature="0"
       style="fill:#ffdd00" />
    <path
       d="m 127.1,127.1 v -1.7 h -0.5 v 1.7 H 125 v 0.5 h 1.6 v 1.5 h 0.5 v -1.5 h 1.6 v -0.5 z"
       id="path4487"
       inkscape:connector-curvature="0"
       style="fill:#00b2ee" />
    <path
       d="m 134.7,121 h 3.7 v 3.7 h -3.7 z"
       id="path4489"
       inkscape:connector-curvature="0"
       style="fill:#ffdd00" />
    <path
       d="M 136.8,122.6 V 121 h -0.5 v 1.6 h -1.6 v 0.5 h 1.6 v 1.6 h 0.5 v -1.6 h 1.6 v -0.5 z"
       id="path4491"
       inkscape:connector-curvature="0"
       style="fill:#d84637" />
    <path
       d="m 128.9,126.4 h 2.9 v 2.9 h -2.9 z"
       id="path4493"
       inkscape:connector-curvature="0"
       style="fill:#f38937" />
    <path
       d="m 130.6,127.6 v -1.2 h -0.5 v 1.2 h -1.2 v 0.5 h 1.2 v 1.2 h 0.5 v -1.2 h 1.2 v -0.5 z"
       id="path4495"
       inkscape:connector-curvature="0"
       style="fill:#00b2ee" />
    <path
       d="m 138.5,121.5 h 2.9 v 2.9 h -2.9 z"
       id="path4497"
       inkscape:connector-curvature="0"
       style="fill:#53c7f2" />
    <path
       d="m 140.1,122.8 v -1.3 h -0.5 v 1.3 h -1.1 v 0.5 h 1.1 v 1.1 h 0.5 v -1.1 h 1.3 v -0.5 z"
       id="path4499"
       inkscape:connector-curvature="0"
       style="fill:#8f4293" />
    <path
       d="m 132.1,126.4 h 2.2 v 2.2 h -2.2 z"
       id="path4501"
       inkscape:connector-curvature="0"
       style="fill:#48b780" />
    <path
       d="m 133.4,127.2 v -0.8 h -0.5 v 0.8 h -0.8 v 0.5 h 0.8 v 0.9 h 0.5 v -0.9 h 0.9 v -0.5 z"
       id="path4503"
       inkscape:connector-curvature="0"
       style="fill:#d2392c" />
    <path
       d="m 122.7,126.5 h 2.2 v 2.2 h -2.2 z"
       id="path4505"
       inkscape:connector-curvature="0"
       style="fill:#48b780" />
    <path
       d="m 124.1,127.3 v -0.8 h -0.5 v 0.8 h -0.9 v 0.5 h 0.9 v 0.9 h 0.5 v -0.9 h 0.8 v -0.5 z"
       id="path4507"
       inkscape:connector-curvature="0"
       style="fill:#8f4293" />
    <path
       d="m 134.7,124.9 h 3.9 v 3.9 h -3.9 z"
       id="path4509"
       inkscape:connector-curvature="0"
       style="fill:#00b2ee" />
    <path
       d="m 136.9,126.6 v -1.7 h -0.5 v 1.7 h -1.7 v 0.5 h 1.7 v 1.7 h 0.5 v -1.7 h 1.7 v -0.5 z"
       id="path4511"
       inkscape:connector-curvature="0"
       style="fill:#f38937" />
    <path
       d="m 130.7,122.3 h 3.9 v 3.9 h -3.9 z"
       id="path4513"
       inkscape:connector-curvature="0"
       style="fill:#8f4293" />
    <path
       d="m 132.9,124.1 v -1.8 h -0.5 v 1.8 h -1.7 v 0.5 h 1.7 v 1.6 h 0.5 v -1.6 h 1.7 v -0.5 z m 5.7,0.4 h 3.9 v 3.9 h -3.9 z"
       id="path4515"
       inkscape:connector-curvature="0"
       style="fill:#48b780" />
    <path
       d="m 140.8,126.3 v -1.8 h -0.5 v 1.8 h -1.7 v 0.5 h 1.7 v 1.6 h 0.5 v -1.6 h 1.7 v -0.5 z"
       id="path4517"
       inkscape:connector-curvature="0"
       style="fill:#ffdd00" />
    <path
       d="M 116.1,128.6 H 90.7 c -2.5,0 -4.7,1.5 -5.9,2.3 -1.2,0.9 -3.7,3.3 -3.7,4.8 0,1 0.9,1.1 2.5,1.1 1.6,0 2,0.2 2.6,1.7 0.7,1.5 1.4,2 2.7,2 h 27.2 c 0.2,0 0.4,-0.2 0.4,-0.4 V 129 c 0,-0.2 -0.2,-0.4 -0.4,-0.4 z"
       id="path4519"
       inkscape:connector-curvature="0"
       style="fill:#e64436"
       sodipodi:nodetypes="sscsscsssss" />
    <path
       d="m 117.1,129 h 0.7 v 11.3 h -0.7 z"
       id="path4521"
       inkscape:connector-curvature="0"
       style="fill:#757575" />
    <path
       d="m 116.5,129.2 h 0.7 v 11 h -0.7 z m 1.3,0 h 0.7 v 11 h -0.7 z"
       id="path4527"
       inkscape:connector-curvature="0"
       style="fill:#333333"
       sodipodi:nodetypes="cccccccccc" />
    <path
       d="m 88.044757,130.50609 -2.515851,-0.0155 C 85.328906,130.59062 85,130.9 84.8,131 c -0.9,0.6 -2.3,2 -3.1,3.3 h 6.4 z M 90.9,133.9 c 0,0.2 -0.2,0.4 -0.4,0.4 h -1.3 c -0.2,0 -0.4,-0.2 -0.4,-0.4 v -3 c 0,-0.2 0.2,-0.4 0.4,-0.4 h 1.3 c 0.2,0 0.4,0.2 0.4,0.4 z"
       id="path4529"
       inkscape:connector-curvature="0"
       style="fill:#b6e2f8"
       sodipodi:nodetypes="ccccccsssssssss" />
    <path
       d="m 116.5,129.2 h 0.7 v 11 h -0.7 z m 1.3,0 h 0.7 v 11 h -0.7 z"
       id="path4549"
       inkscape:connector-curvature="0"
       style="fill:#333333"
       sodipodi:nodetypes="cccccccccc" />
    <path
       d="m 145.6,128.8 c 3.2,0.9 4.5,-1.5 4.4,-2.9 -0.1,-1.6 -1,-3 -3.2,-3 -4.2,0 -4.7,5.8 -8,5.8 h -20 c -0.2,0 -0.40041,0.2 -0.4,0.4 l 0.0221,10.90721 c 4e-4,0.2 0.19447,0.5377 0.39447,0.53811 l 24.29448,0.0497 c 0.2,4.1e-4 0.38319,-0.23867 0.38343,-0.43867 L 143.5,135.5 c 0.003,-2.4 0.5,-6.7 2.1,-6.7 z"
       id="path4555"
       inkscape:connector-curvature="0"
       style="fill:#e64436"
       sodipodi:nodetypes="ccsssssssssc" />
    <path
       d="m 123.9,133.9 c 0,0.2 0.2,0.4 0.4,0.4 h 3 c 0.2,0 0.4,-0.2 0.4,-0.4 v -3 c 0,-0.2 -0.2,-0.4 -0.4,-0.4 h -3 c -0.2,0 -0.4,0.2 -0.4,0.4 z m -4.1,0 c 0,0.2 0.2,0.4 0.4,0.4 h 3 c 0.2,0 0.4,-0.2 0.4,-0.4 v -3 c 0,-0.2 -0.2,-0.4 -0.4,-0.4 h -3 c -0.2,0 -0.4,0.2 -0.4,0.4 z"
       id="path4569"
       inkscape:connector-curvature="0"
       style="fill:#b6e2f8" />
    <path
       d="m 118.5,137.6 v 2.6 z m -29.5,3 h 27.1 c 0.2,0 0.4,-0.2 0.4,-0.4 v -2.6 H 85.7 c 0.2,0.2 0.3,0.6 0.5,1 0.7,1.5 1.5,2 2.8,2 z"
       id="path4571"
       inkscape:connector-curvature="0"
       style="fill:#333333"
       sodipodi:nodetypes="cccssscccs" />
    <path
       style="fill:#a52e22"
       d="m 85.3,137.1 c 0.2,0.2 0.5,0.6 0.7,1 h 30.5 v -1 z"
       id="path4616"
       inkscape:connector-curvature="0" />
    <path
       style="fill:#a52e22"
       d="M 118.38951,137.0779 143.5,137.1 v 1 l -25.11049,-0.0221 z"
       id="path4573"
       inkscape:connector-curvature="0"
       sodipodi:nodetypes="ccccc" />
    <path
       d="m 118.8,140.6 h 24.3 c 0.2,0 0.4,-0.2 0.4,-0.4 v -2.6 h -25.09944 v 2.6 c 0,0.2 0.19944,0.4 0.39944,0.4 z"
       id="path4575"
       inkscape:connector-curvature="0"
       style="fill:#333333"
       sodipodi:nodetypes="sssccss" />
    <path
       style="fill:#171717"
       d="m 85.7,137.6 c 0.2,0.2 0.3,0.6 0.5,1 h 30.3 v -1 z"
       id="path4612"
       inkscape:connector-curvature="0"
       sodipodi:nodetypes="ccccc" />
    <path
       style="fill:#171717"
       d="M 118.40056,137.6 H 143.5 v 1 h -25.09944 z"
       id="path4577"
       inkscape:connector-curvature="0"
       sodipodi:nodetypes="ccccc" />
    <path
       style="fill:none;stroke:#b6e2f8;stroke-linecap:round;stroke-linejoin:round;stroke-miterlimit:10"
       d="m 115.5,138.2 c 0,0.8 -0.8,1.5 -1.7,1.5 H 89.3 c -0.9,0 -1.7,-0.7 -1.7,-1.5"
       id="path4630"
       inkscape:connector-curvature="0" />
    <path
       style="fill:none;stroke:#b6e2f8;stroke-linecap:round;stroke-linejoin:round;stroke-miterlimit:10"
       d="m 91.4,138 v 1.6"
       id="path4628"
       inkscape:connector-curvature="0" />
    <path
       style="fill:none;stroke:#b6e2f8;stroke-linecap:round;stroke-linejoin:round;stroke-miterlimit:10"
       d="m 111.7,138 v 1.6"
       id="path4626"
       inkscape:connector-curvature="0" />
    <path
       style="fill:none;stroke:#b6e2f8;stroke-linecap:round;stroke-linejoin:round;stroke-miterlimit:10"
       d="m 101.7,138 v 1.6"
       id="path4624"
       inkscape:connector-curvature="0" />
    <path
       style="fill:none;stroke:#b6e2f8;stroke-linecap:round;stroke-linejoin:round;stroke-miterlimit:10"
       d="m 142.4,138.2 c 0,0.8 -0.8,1.5 -1.7,1.5 h -19.8 c -0.9,0 -1.7,-0.7 -1.7,-1.5"
       id="path4622"
       inkscape:connector-curvature="0" />
    <path
       style="fill:none;stroke:#b6e2f8;stroke-linecap:round;stroke-linejoin:round;stroke-miterlimit:10"
       d="m 122.9,138 v 1.6"
       id="path4620"
       inkscape:connector-curvature="0" />
    <path
       style="fill:none;stroke:#b6e2f8;stroke-linecap:round;stroke-linejoin:round;stroke-miterlimit:10"
       d="m 138.5,138 v 1.6"
       id="path4579"
       inkscape:connector-curvature="0" />
    <path
       style="fill:none;stroke:#ffd400;stroke-width:2;stroke-miterlimit:10"
       d="m 92.7,135.6 h 22.9"
       id="path4608"
       inkscape:connector-curvature="0" />
    <path
       style="fill:none;stroke:#ffd400;stroke-width:2;stroke-miterlimit:10"
       d="m 82.1,135.6 h 9"
       id="path4606"
       inkscape:connector-curvature="0" />
    <path
       style="fill:none;stroke:#ffd400;stroke-width:2;stroke-miterlimit:10"
       d="m 119.7,135.6 h 10.2 c 11.8,0 12.7,-11.4 16.9,-11.4 2.4,0 2.7,3.4 0,3.4 -1.7,0 -1.2,-1.9 0.1,-1.9"
       id="path4581"
       inkscape:connector-curvature="0" />
    <path
       d="m 106.6,136.5 c 0,0.2 -0.2,0.4 -0.4,0.4 h -4.7 c -0.2,0 -0.4,-0.2 -0.4,-0.4 v -6.2 c 0,-0.2 0.2,-0.4 0.4,-0.4 h 4.7 c 0.2,0 0.4,0.2 0.4,0.4 z"
       id="path4531"
       inkscape:connector-curvature="0"
       style="fill:#a52e22" />
    <path
       stroke-miterlimit="10"
       d="m 103.9,129.9 v 6.9 m -12.1,-8.2 v 9"
       id="path4535"
       inkscape:connector-curvature="0"
       style="fill:none;stroke:#ffffff;stroke-width:0.5;stroke-miterlimit:10" />
    <path
       d="m 88.5,133.9 c 0,0.2 -0.189516,0.39363 -0.389515,0.39448 L 86.8,134.3 c -0.199998,8.4e-4 -0.4,-0.2 -0.4,-0.4 v -3 c 0,-0.2 0.2,-0.4 0.4,-0.4 h 1.3 c 0.2,0 0.4,0.2 0.4,0.4 z m 15,0 c 0,0.2 -0.2,0.4 -0.4,0.4 h -1 c -0.2,0 -0.4,-0.2 -0.4,-0.4 v -3 c 0,-0.2 0.2,-0.4 0.4,-0.4 h 1 c 0.2,0 0.4,0.2 0.4,0.4 z m 2.7,0 c 0,0.2 -0.2,0.4 -0.4,0.4 h -1.1 c -0.2,0 -0.4,-0.2 -0.4,-0.4 v -3 c 0,-0.2 0.2,-0.4 0.4,-0.4 h 1.1 c 0.2,0 0.4,0.2 0.4,0.4 z m 4.8,0 c 0,0.2 -0.2,0.4 -0.4,0.4 h -3 c -0.2,0 -0.4,-0.2 -0.4,-0.4 v -3 c 0,-0.2 0.2,-0.4 0.4,-0.4 h 3 c 0.2,0 0.4,0.2 0.4,0.4 z m 4.1,0 c 0,0.2 -0.2,0.4 -0.4,0.4 h -3 c -0.2,0 -0.4,-0.2 -0.4,-0.4 v -3 c 0,-0.2 0.2,-0.4 0.4,-0.4 h 3 c 0.2,0 0.4,0.2 0.4,0.4 z m -18.3,0 c 0,0.2 0.2,0.4 0.4,0.4 h 3 c 0.2,0 0.4,-0.2 0.4,-0.4 v -3 c 0,-0.2 -0.2,-0.4 -0.4,-0.4 h -3 c -0.2,0 -0.4,0.2 -0.4,0.4 z m -4,0 c 0,0.2 0.2,0.4 0.4,0.4 h 3 c 0.2,0 0.4,-0.2 0.4,-0.4 v -3 c 0,-0.2 -0.2,-0.4 -0.4,-0.4 h -3 c -0.2,0 -0.4,0.2 -0.4,0.4 z"
       id="path4533"
       inkscape:connector-curvature="0"
       style="fill:#b6e2f8"
       sodipodi:nodetypes="cssssssscssssssssssssssssssssssssssssssssssssssssssssssssssssss" />
  </g>
</svg>
