<?xml version="1.0" standalone="no"?><!-- Generator: Gravit.io --><svg xmlns="http://www.w3.org/2000/svg" xmlns:xlink="http://www.w3.org/1999/xlink" style="isolation:isolate" viewBox="0 0 25 25" width="25" height="25"><g><circle vector-effect="non-scaling-stroke" cx="0" cy="0" r="1" transform="matrix(12.5,0,0,12.5,12.5,12.5)" fill="rgb(0,176,235)"/><path d=" M 20.996 7.813 L 20.703 7.813 L 20.703 6.055 C 20.703 4.414 17.07 3.125 12.5 3.125 C 7.93 3.125 4.297 4.414 4.297 6.055 L 4.297 7.813 L 4.004 7.813 C 3.519 7.813 3.125 8.206 3.125 8.691 L 3.125 11.621 C 3.125 12.106 3.519 12.5 4.004 12.5 L 4.297 12.5 L 4.297 18.359 C 4.297 19.006 4.822 19.531 5.469 19.531 L 5.469 20.703 C 5.469 21.35 5.994 21.875 6.641 21.875 L 7.813 21.875 C 8.46 21.875 8.984 21.35 8.984 20.703 L 8.984 19.531 L 16.016 19.531 L 16.016 20.703 C 16.016 21.35 16.54 21.875 17.188 21.875 L 18.359 21.875 C 19.006 21.875 19.531 21.35 19.531 20.703 L 19.531 19.531 L 19.766 19.531 C 20.352 19.531 20.703 19.063 20.703 18.594 L 20.703 12.5 L 20.996 12.5 C 21.481 12.5 21.875 12.106 21.875 11.621 L 21.875 8.691 C 21.875 8.206 21.481 7.813 20.996 7.813 Z  M 7.227 17.773 C 6.579 17.773 6.055 17.249 6.055 16.602 C 6.055 15.954 6.579 15.43 7.227 15.43 C 7.874 15.43 8.398 15.954 8.398 16.602 C 8.398 17.249 7.874 17.773 7.227 17.773 Z  M 7.813 13.672 C 7.165 13.672 6.641 13.147 6.641 12.5 L 6.641 7.813 C 6.641 7.165 7.165 6.641 7.813 6.641 L 17.188 6.641 C 17.835 6.641 18.359 7.165 18.359 7.813 L 18.359 12.5 C 18.359 13.147 17.835 13.672 17.188 13.672 L 7.813 13.672 Z  M 17.773 17.773 C 17.126 17.773 16.602 17.249 16.602 16.602 C 16.602 15.954 17.126 15.43 17.773 15.43 C 18.421 15.43 18.945 15.954 18.945 16.602 C 18.945 17.249 18.421 17.773 17.773 17.773 Z " fill="rgb(255,255,255)"/></g></svg>