<svg height="511pt" viewBox="-95 0 511 511.99898" width="511pt" xmlns="http://www.w3.org/2000/svg">
    <path d="m55.253906 282.148438c-3.152344 1.828124-6.65625 3.097656-10.386718 3.707031-1.582032.261719-3.21875.394531-4.886719.394531-16.847657 0-30.515625-13.65625-30.515625-30.515625 0 0-6.769532-56.035156 10.078125-56.035156 0 0 23.742187 25.660156 25.324219 25.914062.710937.109375 1.414062.25 2.101562.421875"
          fill="#f6ba97"/>
    <path d="m274.039062 226.035156c.6875-.171875 1.394532-.3125 2.101563-.425781 1.582031-.25 25.324219-25.910156 25.324219-25.910156 16.847656 0 10.078125 56.03125 10.078125 56.03125 0 16.859375-13.667969 30.515625-30.515625 30.515625-1.667969 0-3.304688-.128906-4.886719-.394532-3.726563-.605468-7.234375-1.878906-10.386719-3.707031"
          fill="#f6ba97"/>
    <g fill="#eaa27f">
        <path d="m50.890625 255.734375c0 6.023437-4.882813 10.90625-10.90625 10.90625s-10.90625-4.882813-10.90625-10.90625 4.882813-10.90625 10.90625-10.90625 10.90625 4.882813 10.90625 10.90625zm0 0"/>
        <path d="m291.933594 255.734375c0 6.023437-4.886719 10.90625-10.90625 10.90625-6.023438 0-10.90625-4.882813-10.90625-10.90625s4.882812-10.90625 10.90625-10.90625c6.019531 0 10.90625 4.882813 10.90625 10.90625zm0 0"/>
        <path d="m274.035156 193.226562v41.214844c0 56.964844-41.957031 104.128906-96.652344 112.269532-5.507812.828124-11.140624 1.253906-16.875 1.253906-62.683593 0-113.511718-50.828125-113.511718-113.523438v-41.214844c0-11.089843 1.597656-21.816406 4.566406-31.949218h217.90625c2.980469 10.132812 4.566406 20.859375 4.566406 31.949218zm0 0"/>
    </g>
    <path d="m274.035156 193.226562v41.214844c0 56.964844-41.957031 104.128906-96.652344 112.269532-54.683593-8.140626-96.640624-55.304688-96.640624-112.269532v-41.214844c0-11.101562 1.585937-21.816406 4.566406-31.949218h184.160156c2.980469 10.132812 4.566406 20.859375 4.566406 31.949218zm0 0"
          fill="#f6ba97"/>
    <path d="m282.433594 444.035156v28.273438c-14.535156 8.230468-29.980469 15.058594-46.164063 20.238281-1.675781.546875-3.351562 1.0625-5.046875 1.566406-6.292968 1.878907-12.699218 3.515625-19.195312 4.878907-2.847656.605468-5.707032 1.164062-8.585938 1.65625-13.949218 2.457031-28.292968 3.726562-42.925781 3.726562-14.636719 0-28.980469-1.269531-42.929687-3.714844-2.878907-.496094-5.738282-1.050781-8.585938-1.65625-7.546875-1.597656-14.953125-3.535156-22.222656-5.796875-.40625-.132812-.808594-.253906-1.210938-.386719-.273437-.082031-.539062-.171874-.808594-.261718-16.171874-5.183594-31.628906-12.007813-46.164062-20.25v-28.273438c0-34.113281 18.566406-63.890625 46.164062-79.757812 7.058594-4.070313 14.707032-7.222656 22.785157-9.292969.484375-.132813.972656-.242187 1.457031-.363281 4.554688-1.101563 9.242188-1.859375 14.039062-2.242188 2.484376-.203125 4.988282-.304687 7.523438-.304687h59.890625c7.078125 0 13.96875.789062 20.585937 2.304687.332032.078125.664063.148438.988282.230469.484375.113281.96875.234375 1.445312.363281 8.082032 2.082032 15.738282 5.234375 22.796875 9.304688 27.585938 15.878906 46.164063 45.65625 46.164063 79.757812zm0 0"
          fill="#3dad52"/>
    <path d="m282.433594 444.035156v28.273438c-31.292969 17.757812-66.851563 28.886718-104.75 31.472656-4.460938.3125-8.957032.503906-13.472656.566406-1.234376.019532-2.464844.027344-3.695313.027344-1.253906 0-2.507813-.007812-3.75-.027344-4.695313-.074218-9.351563-.273437-13.976563-.597656-19.808593-1.402344-38.972656-5.140625-57.222656-10.929688v-48.789062c0-25.695312 10.535156-48.929688 27.535156-65.605469 16.59375-16.300781 39.351563-26.351562 64.441407-26.351562h12.910156c.878906 0 1.757813.007812 2.625.039062h.121094c.777343.019531 1.558593.050781 2.335937.101563.765625.039062 1.523438.089844 2.28125.152344.445313.03125.890625.070312 1.332032.121093.40625.019531.789062.058594 1.183593.109375.445313.050782.890625.101563 1.332031.152344.3125.03125.628907.070312.929688.121094.625.082031 1.242188.160156 1.859375.261718.011719-.011718.019531 0 .019531 0 .757813.121094 1.515625.242188 2.261719.375.757813.140626 1.507813.28125 2.265625.433594.746094.152344 1.484375.3125 2.230469.484375.746093.171875 1.496093.351563 2.242187.554688 39.667969 10.214843 68.960938 46.214843 68.960938 89.054687zm0 0"
          fill="#4dc168"/>
    <path d="m273.753906 121.539062h-226.496094c0-55.714843 62.941407-103.011718 113.25-113.917968 50.308594 10.90625 113.246094 58.203125 113.246094 113.917968zm0 0"
          fill="#4dc168"/>
    <path d="m160.507812 347.964844-32.550781 56.296875s-63.417969-28.019531-34.25-78.039063" fill="#ef5361"/>
    <path d="m160.507812 347.964844 32.554688 56.296875s63.417969-28.019531 34.25-78.039063" fill="#ef5361"/>
    <path d="m160.507812 7.621094c-23.953124 23.953125-36.332031 86.378906-40.761718 113.917968h-72.484375c-.003907-55.714843 62.9375-103.011718 113.246093-113.917968zm0 0"
          fill="#3dad52"/>
    <path d="m287.402344 138.667969v39.335937c0 12.023438-12.804688 20.761719-25.597656 17.367188-47.5-12.585938-97.175782-16.132813-145.898438-10.632813-.03125 0-.0625.007813-.09375.007813-4.660156.53125-9.296875 1.132812-13.933594 1.828125-14.339844 2.136719-28.554687 5.0625-42.589844 8.777343-12.824218 3.402344-25.660156-5.292968-25.660156-17.335937v-39.34375c0-7.761719 5.46875-14.683594 13.632813-17.132813 17.910156-5.363281 36.167969-9.421874 54.617187-12.179687 5.289063-.789063 10.59375-1.472656 15.914063-2.042969h.019531c52.210938-5.636718 105.476562-.902344 155.925781 14.214844 8.175781 2.445312 13.664063 9.378906 13.664063 17.136719zm0 0"
          fill="#ef5361"/>
    <path d="m115.8125 184.746094c-4.660156.53125-9.296875 1.132812-13.933594 1.828125-14.339844 2.136719-28.554687 5.0625-42.589844 8.777343-12.824218 3.402344-25.660156-5.292968-25.660156-17.335937v-39.34375c0-7.761719 5.46875-14.683594 13.632813-17.132813 17.910156-5.363281 36.167969-9.421874 54.617187-12.179687 5.289063-.789063 10.59375-1.472656 15.914063-2.042969-31.902344 4.792969-39.289063 23.5-36.179688 43.554688 3.113281 20.054687 13.40625 35.679687 34.199219 33.875zm0 0"
          fill="#dc4250"/>
    <path d="m186.8125 284.65625c-16.472656 8.074219-36.144531 8.074219-52.621094 0-3.78125-1.851562-8.347656-.285156-10.199218 3.492188-1.851563 3.78125-.289063 8.347656 3.492187 10.199218 10.339844 5.066406 21.675781 7.597656 33.019531 7.597656 11.335938 0 22.679688-2.53125 33.019532-7.597656 3.777343-1.851562 5.34375-6.417968 3.492187-10.199218-1.855469-3.78125-6.417969-5.34375-10.203125-3.492188zm0 0"/>
    <path d="m154.03125 266.816406h12.199219c4.207031 0 7.621093-3.414062 7.621093-7.621094 0-4.210937-3.414062-7.625-7.621093-7.625h-12.199219c-4.210938 0-7.621094 3.414063-7.621094 7.625 0 4.207032 3.410156 7.621094 7.621094 7.621094zm0 0"/>
    <path d="m193.839844 210.160156c-4.210938 0-7.625 3.410156-7.625 7.621094v19.191406c0 4.210938 3.414062 7.625 7.625 7.625 4.210937 0 7.621094-3.414062 7.621094-7.625v-19.191406c0-4.210938-3.414063-7.621094-7.621094-7.621094zm0 0"/>
    <path d="m134.792969 236.972656v-19.191406c0-4.210938-3.410157-7.621094-7.621094-7.621094s-7.621094 3.410156-7.621094 7.621094v19.191406c0 4.210938 3.410157 7.625 7.621094 7.625s7.621094-3.414062 7.621094-7.625zm0 0"/>
    <path d="m312.605469 197.234375c-2.988281-3.375-6.84375-5.15625-11.140625-5.15625-2.125 0-4.152344.886719-5.59375 2.445313-4.773438 5.15625-9.90625 10.613281-14.21875 15.113281v-9.628907c1.160156-.652343 2.289062-1.371093 3.351562-2.1875 6.367188-4.898437 10.019532-12.121093 10.019532-19.816406v-39.332031c0-9.363281-5.375-17.746094-13.808594-22.25-1.65625-25.8125-15.734375-52-40.070313-74.265625-22.285156-20.394531-51.828125-36.085938-79.019531-41.984375-1.0625-.2304688-2.167969-.2304688-3.230469 0-27.191406 5.898437-56.734375 21.589844-79.019531 41.984375-24.335938 22.269531-38.417969 48.453125-40.070312 74.269531-8.425782 4.5-13.796876 12.882813-13.796876 22.246094v39.34375c0 7.683594 3.644532 14.894531 10 19.785156 1.066407.820313 2.195313 1.546875 3.363282 2.203125v9.648438c-4.316406-4.5-9.453125-9.964844-14.230469-15.128906-1.445313-1.558594-3.472656-2.445313-5.597656-2.445313-4.296875 0-8.148438 1.78125-11.136719 5.15625-5.410156 6.101563-7.996094 17.859375-7.90625 35.945313.058594 11.03125 1.09375 20.8125 1.34375 23.015624.25 20.816407 17.261719 37.671876 38.136719 37.671876 2.082031 0 4.144531-.164063 6.113281-.488282 2.597656-.425781 5.113281-1.113281 7.539062-2.042968 7.503907 14.097656 17.773438 26.738281 30.359376 37.011718-4.847657 10.34375-6.535157 20.566406-5.066407 30.535156-29.636719 17.992188-47.957031 50.398438-47.957031 85.15625v28.261719c0 2.746094 1.476562 5.28125 3.863281 6.632813 15.167969 8.59375 31.179688 15.621094 47.496094 20.851562l.125.042969c.285156.097656.570313.191406.859375.277344l1.203125.382812c7.585937 2.351563 15.292969 4.359375 22.886719 5.964844 3.160156.675781 6.078125 1.238281 8.867187 1.710937 14.488281 2.546876 29.375 3.835938 44.25 3.835938 14.882813 0 29.773438-1.292969 44.203125-3.839844 2.851563-.484375 5.761719-1.042968 8.867188-1.710937 6.601562-1.382813 13.269531-3.078125 19.78125-5.023438 1.828125-.535156 3.550781-1.070312 5.230468-1.621093 16.414063-5.257813 32.425782-12.28125 47.59375-20.871094 2.386719-1.355469 3.863282-3.886719 3.863282-6.632813v-28.265625c0-34.746094-18.324219-67.15625-47.964844-85.160156 1.46875-9.964844-.21875-20.1875-5.066406-30.53125 12.585937-10.273438 22.855468-22.914062 30.359375-37.007812 2.417969.929687 4.929687 1.617187 7.507812 2.035156 1.988281.332031 4.050781.496094 6.136719.496094 20.871094 0 37.882812-16.855469 38.132812-37.671876.25-2.203124 1.289063-11.984374 1.34375-23.015624.089844-18.085938-2.496093-29.84375-7.902343-35.945313zm-222.441407-143.832031c19.941407-18.246094 46.117188-32.355469 70.34375-37.96875 24.230469 5.613281 50.40625 19.722656 70.347657 37.96875 19.382812 17.738281 31.339843 37.929687 34.457031 57.816406-47.726562-12.832031-98.699219-16.8125-148.148438-11.5-.0625.003906-.121093.011719-.183593.015625-5.3125.570313-10.773438 1.273437-16.230469 2.085937-15.183594 2.269532-30.285156 5.4375-45.046875 9.410157 3.113281-19.890625 15.074219-40.085938 34.460937-57.828125zm-46.539062 224.929687c-1.167969.195313-2.394531.292969-3.644531.292969-12.625 0-22.894531-10.269531-22.894531-22.890625 0-.308594-.015626-.613281-.054688-.914063-.011719-.113281-1.335938-11.226562-1.285156-23.230468.050781-12.496094 1.554687-18.777344 2.753906-21.804688 12.28125 13.199219 17.820312 18.785156 20.871094 21.242188v3.417968c0 14.839844 2.765625 29.382813 7.933594 42.964844-1.191407.398438-2.417969.71875-3.679688.921875zm231.1875 165.707031v23.773438c-13.105469 7.109375-26.832031 12.980469-40.910156 17.488281-1.570313.515625-3.152344 1.003907-4.863282 1.507813-6.140624 1.835937-12.390624 3.425781-18.613281 4.726562-2.921875.628906-5.621093 1.148438-8.300781 1.605469-27.207031 4.796875-55.925781 4.800781-83.265625 0-2.621094-.441406-5.324219-.964844-8.28125-1.597656-7.160156-1.515625-14.410156-3.402344-21.449219-5.585938l-1.210937-.386719c-.0625-.019531-.121094-.039062-.179688-.054687-.144531-.042969-.28125-.089844-.421875-.136719l-.238281-.082031c-14.035156-4.496094-27.761719-10.371094-40.863281-17.484375v-23.773438c0-28.1875 14.21875-54.550781 37.457031-70.117187 11.886719 24.105469 39.910156 36.738281 41.203125 37.308594 1 .441406 2.046875.652343 3.078125.652343 2.644531 0 5.199219-1.382812 6.601563-3.808593l25.953124-44.882813 25.957032 44.882813c1.402344 2.425781 3.953125 3.808593 6.601562 3.808593 1.035156 0 2.078125-.210937 3.078125-.652343 1.292969-.570313 29.320313-13.203125 41.203125-37.3125 23.246094 15.585937 37.464844 41.949219 37.464844 70.121093zm-178.144531-106.636718c15.519531 9.664062 32.855469 15.597656 51.027343 17.5l-22.683593 39.21875c-2.617188-1.515625-5.867188-3.570313-9.300781-6.148438-7.269532-5.460937-16.714844-14.363281-20.414063-25.777344-2.585937-7.972656-2.132813-16.144531 1.371094-24.792968zm76.65625 17.5c1.738281-.183594 3.46875-.390625 5.1875-.648438 16.226562-2.417968 31.902343-8.214844 45.835937-16.859375 3.5 8.632813 3.957032 16.789063 1.394532 24.746094-5.097657 15.804687-20.953126 26.871094-29.742188 31.972656zm93.082031-120.460938c0 33.726563-16.292969 65.738282-43.589844 85.628906-13.695312 10-29.792968 16.605469-46.554687 19.105469-5.179688.773438-10.480469 1.164063-15.753907 1.164063-22.582031 0-44.128906-7.007813-62.316406-20.277344-27.285156-19.882812-43.574218-51.890625-43.574218-85.621094v-30.75c2.214843-.074218 4.4375-.394531 6.621093-.972656 13.675781-3.621094 27.730469-6.515625 41.769531-8.605469 4.425782-.664062 8.894532-1.25 13.664063-1.792969.015625 0 .03125-.003906.046875-.003906s.027344-.003906.042969-.003906c48.269531-5.449219 96.414062-1.941406 143.089843 10.425781 2.160157.574219 4.359376.878907 6.554688.953125zm-2.648438-46.4375c-33.738281-8.941406-68.207031-13.425781-102.949218-13.425781-15.214844 0-30.480469.859375-45.757813 2.585937-.019531 0-.035156.003907-.050781.003907s-.03125.003906-.046875.003906c-4.886719.554687-9.664063 1.183594-14.199219 1.863281-14.589844 2.175782-29.199218 5.183594-43.421875 8.949219-4.230469 1.121094-8.726562.273437-12.03125-2.269531-1.511719-1.160156-4.050781-3.710938-4.050781-7.699219v-39.34375c0-4.410156 3.296875-8.359375 8.199219-9.828125.015625-.007812.035156-.011719.050781-.015625s.027344-.007813.039062-.011719c17.371094-5.199218 35.359376-9.210937 53.460938-11.917968 5.195312-.773438 10.390625-1.441407 15.445312-1.988282.0625-.003906.125-.007812.1875-.015625 51.136719-5.515625 103.960938-.714843 152.78125 13.894531.058594.019532.117188.039063.179688.054688 4.894531 1.488281 8.183594 5.429688 8.183594 9.824219v39.335937c0 4.003906-2.550782 6.5625-4.070313 7.730469-3.289062 2.535156-7.757812 3.382813-11.949219 2.269531zm40.21875 66.816406c-.035156.300782-.054687.609376-.054687.914063 0 12.621094-10.269531 22.890625-22.894531 22.890625-1.25 0-2.476563-.097656-3.664063-.292969-1.25-.203125-2.464843-.519531-3.648437-.921875 5.171875-13.582031 7.9375-28.125 7.9375-42.96875v-3.425781c3.054687-2.460937 8.59375-8.050781 20.855468-21.230469 1.199219 3.015625 2.691407 9.261719 2.757813 21.671875.058594 12.007813-1.277344 23.25-1.289063 23.363281zm0 0"/>
    <path d="m164.746094 392.84375c-2.628906-1.730469-6.105469-1.683594-8.671875.144531-2.574219 1.828125-3.734375 5.183594-2.898438 8.214844.824219 2.996094 3.460938 5.226563 6.550781 5.550781 3.378907.359375 6.648438-1.652344 7.886719-4.804687 1.28125-3.273438.082031-7.164063-2.867187-9.105469zm0 0"/>
    <path d="m164.746094 466.019531c-2.628906-1.730469-6.105469-1.683593-8.671875.140625-2.574219 1.828125-3.734375 5.1875-2.898438 8.21875.824219 2.996094 3.460938 5.226563 6.550781 5.550782 3.378907.355468 6.648438-1.652344 7.886719-4.804688 1.28125-3.277344.082031-7.164062-2.867187-9.105469zm0 0"/>
    <path d="m167.550781 432.847656c-2.578125-6.117187-11.503906-6.144531-14.078125 0-1.257812 3.003906-.382812 6.644532 2.113282 8.738282 2.367187 1.988281 5.785156 2.351562 8.515624.902343 3.417969-1.816406 4.925782-6.070312 3.449219-9.640625zm0 0"/>
</svg>