<?xml version="1.0" standalone="no"?><!-- Generator: Gravit.io --><svg xmlns="http://www.w3.org/2000/svg" xmlns:xlink="http://www.w3.org/1999/xlink" style="isolation:isolate" viewBox="0 0 100 100" width="100" height="100"><g><circle vector-effect="non-scaling-stroke" cx="0" cy="0" r="1" transform="matrix(50,0,0,50,50,50)" fill="rgb(247,98,120)"/><path d=" M 82.813 26.563 L 82.813 64.063 C 82.813 71.653 73.786 78.125 63.766 78.125 L 72.992 85.408 C 73.863 86.096 73.373 87.5 72.266 87.5 L 27.734 87.5 C 26.624 87.5 26.139 86.095 27.008 85.408 L 36.234 78.125 C 26.243 78.125 17.188 71.673 17.188 64.063 L 17.188 26.563 C 17.188 18.796 26.563 12.5 35.938 12.5 L 64.063 12.5 C 73.584 12.5 82.813 18.796 82.813 26.563 Z  M 75.781 46.484 L 75.781 30.078 C 75.781 28.136 74.207 26.563 72.266 26.563 L 27.734 26.563 C 25.793 26.563 24.219 28.136 24.219 30.078 L 24.219 46.484 C 24.219 48.426 25.793 50 27.734 50 L 72.266 50 C 74.207 50 75.781 48.426 75.781 46.484 Z  M 50 55.859 C 45.47 55.859 41.797 59.532 41.797 64.063 C 41.797 68.593 45.47 72.266 50 72.266 C 54.53 72.266 58.203 68.593 58.203 64.063 C 58.203 59.532 54.53 55.859 50 55.859 Z " fill="rgb(255,255,255)"/></g></svg>