<?xml version="1.0" standalone="no"?><!-- Generator: Gravit.io --><svg xmlns="http://www.w3.org/2000/svg" xmlns:xlink="http://www.w3.org/1999/xlink" style="isolation:isolate" viewBox="0 0 512 512" width="512" height="512"><defs><clipPath id="_clipPath_C1aDXEaO0UghzKNiV1gRl1URdu3IZKsw"><rect width="512" height="512"/></clipPath></defs><g clip-path="url(#_clipPath_C1aDXEaO0UghzKNiV1gRl1URdu3IZKsw)"><rect width="512" height="512" style="fill:rgb(104,116,232)"/><rect x="0" y="400" width="512" height="112" transform="matrix(1,0,0,1,0,0)" fill="rgb(51,101,138)"/><defs><filter id="QgJPjwH6EePRDap9AY0z6Bb7qgj5SQFI" x="-200%" y="-200%" width="400%" height="400%" filterUnits="objectBoundingBox" color-interpolation-filters="sRGB"><feGaussianBlur xmlns="http://www.w3.org/2000/svg" in="SourceGraphic" stdDeviation="2.146804531419514"/><feOffset xmlns="http://www.w3.org/2000/svg" dx="0" dy="3" result="pf_100_offsetBlur"/><feFlood xmlns="http://www.w3.org/2000/svg" flood-color="#000000" flood-opacity="0.65"/><feComposite xmlns="http://www.w3.org/2000/svg" in2="pf_100_offsetBlur" operator="in" result="pf_100_dropShadow"/><feBlend xmlns="http://www.w3.org/2000/svg" in="SourceGraphic" in2="pf_100_dropShadow" mode="normal"/></filter></defs><g filter="url(#QgJPjwH6EePRDap9AY0z6Bb7qgj5SQFI)"><rect x="0" y="350" width="512" height="50" transform="matrix(1,0,0,1,0,0)" fill="rgb(46,46,46)"/></g><defs><filter id="YaL5ykKgtEA6KNhlXmKqU8yiF7gT2GD7" x="-200%" y="-200%" width="400%" height="400%" filterUnits="objectBoundingBox" color-interpolation-filters="sRGB"><feGaussianBlur xmlns="http://www.w3.org/2000/svg" in="SourceGraphic" stdDeviation="2.146804531419514"/><feOffset xmlns="http://www.w3.org/2000/svg" dx="10" dy="10" result="pf_100_offsetBlur"/><feFlood xmlns="http://www.w3.org/2000/svg" flood-color="#000000" flood-opacity="0.4"/><feComposite xmlns="http://www.w3.org/2000/svg" in2="pf_100_offsetBlur" operator="in" result="pf_100_dropShadow"/><feBlend xmlns="http://www.w3.org/2000/svg" in="SourceGraphic" in2="pf_100_dropShadow" mode="normal"/></filter></defs><g filter="url(#YaL5ykKgtEA6KNhlXmKqU8yiF7gT2GD7)"><path d=" M 242.511 367.938 C 143.187 223.947 124.75 209.169 124.75 156.25 C 124.75 83.762 183.512 25 256 25 C 328.488 25 387.25 83.762 387.25 156.25 C 387.25 209.169 368.813 223.947 269.489 367.938 C 262.971 377.354 249.029 377.354 242.511 367.938 Z " fill="rgb(0,176,235)"/></g><path d=" M 323.969 118.75 L 321.625 118.75 L 321.625 104.687 C 321.625 91.562 292.562 81.25 256 81.25 C 219.437 81.25 190.375 91.562 190.375 104.687 L 190.375 118.75 L 188.031 118.75 C 184.149 118.75 181 121.896 181 125.781 L 181 149.219 C 181 153.101 184.149 156.25 188.031 156.25 L 190.375 156.25 L 190.375 203.125 C 190.375 208.302 194.573 212.5 199.75 212.5 L 199.75 221.875 C 199.75 227.052 203.948 231.25 209.125 231.25 L 218.5 231.25 C 223.677 231.25 227.875 227.052 227.875 221.875 L 227.875 212.5 L 284.125 212.5 L 284.125 221.875 C 284.125 227.052 288.323 231.25 293.5 231.25 L 302.875 231.25 C 308.052 231.25 312.25 227.052 312.25 221.875 L 312.25 212.5 L 314.125 212.5 C 318.812 212.5 321.625 208.75 321.625 205 L 321.625 156.25 L 323.969 156.25 C 327.851 156.25 331 153.101 331 149.219 L 331 125.781 C 331 121.896 327.851 118.75 323.969 118.75 Z  M 213.812 198.437 C 208.636 198.437 204.437 194.239 204.437 189.062 C 204.437 183.886 208.636 179.687 213.812 179.687 C 218.989 179.687 223.187 183.886 223.187 189.062 C 223.187 194.239 218.989 198.437 213.812 198.437 Z  M 218.5 165.625 C 213.323 165.625 209.125 161.427 209.125 156.25 L 209.125 118.75 C 209.125 113.573 213.323 109.375 218.5 109.375 L 293.5 109.375 C 298.677 109.375 302.875 113.573 302.875 118.75 L 302.875 156.25 C 302.875 161.427 298.677 165.625 293.5 165.625 L 218.5 165.625 Z  M 298.187 198.437 C 293.011 198.437 288.812 194.239 288.812 189.062 C 288.812 183.886 293.011 179.687 298.187 179.687 C 303.364 179.687 307.562 183.886 307.562 189.062 C 307.562 194.239 303.364 198.437 298.187 198.437 Z " fill="rgb(255,255,255)"/></g></svg>